# xmcd
#
# Track frame offsets:
#	150
#	17647
#	30735
#	54262
#	77177
#	99287
#	119717
#	141960
#	159072
#	179820
#
# Disc length: 2645 seconds
#
# Revision: 1
# Processed by: cddbd v1.5PL3 Copyright (c) Steve Scherf et al.
# Submitted via: EasyCDDAExtractor 6.0.0.1
#
DISCID=7d0a530a
DTITLE=草蜢 - 失戀陣線聯盟
DYEAR=1990
DGENRE=Pop
TTITLE0=半點心
TTITLE1=失戀陣線聯盟
TTITLE2=每個夢都有溫暖的窩
TTITLE3=愛過就忘
TTITLE4=一對一
TTITLE5=心中的歌
TTITLE6=也算是緣份
TTITLE7=9.95
TTITLE8=告訴我妳曾經愛我
TTITLE9=做個自由人
EXTD=
EXTT0=
EXTT1=
EXTT2=
EXTT3=
EXTT4=
EXTT5=
EXTT6=
EXTT7=
EXTT8=
EXTT9=
PLAYORDER=
